<mxfile host="Electron" agent="Mozilla/5.0 (Windows NT 10.0; Win64; x64) AppleWebKit/537.36 (KHTML, like Gecko) draw.io/24.7.17 Chrome/128.0.6613.36 Electron/32.0.1 Safari/537.36" version="24.7.17">
  <diagram name="state diagram" id="wBf-bakruhNQO672CEL4">
    <mxGraphModel dx="913" dy="540" grid="1" gridSize="10" guides="1" tooltips="1" connect="1" arrows="1" fold="1" page="1" pageScale="1" pageWidth="850" pageHeight="1100" math="0" shadow="0">
      <root>
        <mxCell id="0" />
        <mxCell id="1" parent="0" />
        <mxCell id="tw801hzvyLFMhfkEruwS-9" style="rounded=0;orthogonalLoop=1;jettySize=auto;html=1;" edge="1" parent="1" source="tw801hzvyLFMhfkEruwS-2" target="tw801hzvyLFMhfkEruwS-4">
          <mxGeometry relative="1" as="geometry" />
        </mxCell>
        <mxCell id="tw801hzvyLFMhfkEruwS-2" value="&lt;font style=&quot;font-size: 14px;&quot;&gt;&lt;b&gt;[ Trạng thái ban đầu ]&lt;/b&gt;&lt;/font&gt;" style="text;html=1;align=center;verticalAlign=middle;whiteSpace=wrap;rounded=0;fontColor=#ff0000;" vertex="1" parent="1">
          <mxGeometry x="320" y="40" width="160" height="30" as="geometry" />
        </mxCell>
        <mxCell id="tw801hzvyLFMhfkEruwS-10" style="rounded=0;orthogonalLoop=1;jettySize=auto;html=1;" edge="1" parent="1" source="tw801hzvyLFMhfkEruwS-4" target="tw801hzvyLFMhfkEruwS-5">
          <mxGeometry relative="1" as="geometry" />
        </mxCell>
        <mxCell id="tw801hzvyLFMhfkEruwS-4" value="Giỏ hàng trống" style="rounded=0;whiteSpace=wrap;html=1;fontSize=14;" vertex="1" parent="1">
          <mxGeometry x="330" y="120" width="140" height="50" as="geometry" />
        </mxCell>
        <mxCell id="tw801hzvyLFMhfkEruwS-13" style="rounded=0;orthogonalLoop=1;jettySize=auto;html=1;exitX=0.25;exitY=1;exitDx=0;exitDy=0;" edge="1" parent="1" source="tw801hzvyLFMhfkEruwS-5" target="tw801hzvyLFMhfkEruwS-12">
          <mxGeometry relative="1" as="geometry" />
        </mxCell>
        <mxCell id="tw801hzvyLFMhfkEruwS-14" style="rounded=0;orthogonalLoop=1;jettySize=auto;html=1;exitX=0.75;exitY=1;exitDx=0;exitDy=0;" edge="1" parent="1" source="tw801hzvyLFMhfkEruwS-5" target="tw801hzvyLFMhfkEruwS-6">
          <mxGeometry relative="1" as="geometry">
            <mxPoint x="460" y="490" as="targetPoint" />
          </mxGeometry>
        </mxCell>
        <mxCell id="tw801hzvyLFMhfkEruwS-5" value="Giỏ hàng có sản phẩm" style="rounded=0;whiteSpace=wrap;html=1;fontSize=14;" vertex="1" parent="1">
          <mxGeometry x="320" y="290" width="160" height="50" as="geometry" />
        </mxCell>
        <mxCell id="tw801hzvyLFMhfkEruwS-17" style="edgeStyle=orthogonalEdgeStyle;rounded=0;orthogonalLoop=1;jettySize=auto;html=1;" edge="1" parent="1" source="tw801hzvyLFMhfkEruwS-6" target="tw801hzvyLFMhfkEruwS-20">
          <mxGeometry relative="1" as="geometry">
            <mxPoint x="350" y="700" as="targetPoint" />
          </mxGeometry>
        </mxCell>
        <mxCell id="tw801hzvyLFMhfkEruwS-18" style="edgeStyle=orthogonalEdgeStyle;rounded=0;orthogonalLoop=1;jettySize=auto;html=1;" edge="1" parent="1" source="tw801hzvyLFMhfkEruwS-6" target="tw801hzvyLFMhfkEruwS-19">
          <mxGeometry relative="1" as="geometry">
            <mxPoint x="530" y="720" as="targetPoint" />
          </mxGeometry>
        </mxCell>
        <mxCell id="tw801hzvyLFMhfkEruwS-6" value="Màn hình xác nhận giỏ hàng&lt;br&gt;(hiển thị tổng tiền)" style="rounded=0;whiteSpace=wrap;html=1;fontSize=14;" vertex="1" parent="1">
          <mxGeometry x="350" y="540" width="180" height="60" as="geometry" />
        </mxCell>
        <mxCell id="tw801hzvyLFMhfkEruwS-7" value="Trang thanh toán" style="rounded=0;whiteSpace=wrap;html=1;fontSize=14;" vertex="1" parent="1">
          <mxGeometry x="278.75" y="760" width="127.5" height="50" as="geometry" />
        </mxCell>
        <mxCell id="tw801hzvyLFMhfkEruwS-8" value="Giỏ hàng có sản phẩm" style="rounded=0;whiteSpace=wrap;html=1;fontSize=14;" vertex="1" parent="1">
          <mxGeometry x="462.5" y="760" width="145" height="50" as="geometry" />
        </mxCell>
        <mxCell id="tw801hzvyLFMhfkEruwS-11" value="Thêm sản phẩm" style="text;html=1;align=center;verticalAlign=middle;whiteSpace=wrap;rounded=0;fontSize=12;" vertex="1" parent="1">
          <mxGeometry x="400" y="210" width="100" height="30" as="geometry" />
        </mxCell>
        <mxCell id="tw801hzvyLFMhfkEruwS-12" value="&lt;font style=&quot;font-size: 14px;&quot;&gt;&lt;b&gt;[ Giỏ hàng trống ]&lt;/b&gt;&lt;/font&gt;" style="text;html=1;align=center;verticalAlign=middle;whiteSpace=wrap;rounded=0;fontColor=#ff0000;" vertex="1" parent="1">
          <mxGeometry x="280" y="440" width="160" height="30" as="geometry" />
        </mxCell>
        <mxCell id="tw801hzvyLFMhfkEruwS-15" value="Bỏ hết hàng" style="text;html=1;align=center;verticalAlign=middle;whiteSpace=wrap;rounded=0;fontSize=12;" vertex="1" parent="1">
          <mxGeometry x="270" y="370" width="90" height="30" as="geometry" />
        </mxCell>
        <mxCell id="tw801hzvyLFMhfkEruwS-16" value="Xem giỏ hàng" style="text;html=1;align=center;verticalAlign=middle;whiteSpace=wrap;rounded=0;fontSize=12;" vertex="1" parent="1">
          <mxGeometry x="440" y="480" width="90" height="30" as="geometry" />
        </mxCell>
        <mxCell id="tw801hzvyLFMhfkEruwS-22" style="rounded=0;orthogonalLoop=1;jettySize=auto;html=1;" edge="1" parent="1" source="tw801hzvyLFMhfkEruwS-19" target="tw801hzvyLFMhfkEruwS-8">
          <mxGeometry relative="1" as="geometry" />
        </mxCell>
        <mxCell id="tw801hzvyLFMhfkEruwS-19" value="Hủy xác nhận&lt;div&gt;(quay lại chọn)&lt;/div&gt;" style="text;html=1;align=center;verticalAlign=middle;whiteSpace=wrap;rounded=0;fontSize=12;" vertex="1" parent="1">
          <mxGeometry x="490" y="680" width="90" height="30" as="geometry" />
        </mxCell>
        <mxCell id="tw801hzvyLFMhfkEruwS-21" style="rounded=0;orthogonalLoop=1;jettySize=auto;html=1;" edge="1" parent="1" source="tw801hzvyLFMhfkEruwS-20" target="tw801hzvyLFMhfkEruwS-7">
          <mxGeometry relative="1" as="geometry" />
        </mxCell>
        <mxCell id="tw801hzvyLFMhfkEruwS-20" value="Xác nhận mua hàng&lt;div&gt;(đúng giá, đúng số lượng)&lt;/div&gt;" style="text;html=1;align=center;verticalAlign=middle;whiteSpace=wrap;rounded=0;fontSize=12;" vertex="1" parent="1">
          <mxGeometry x="260" y="680" width="165" height="30" as="geometry" />
        </mxCell>
      </root>
    </mxGraphModel>
  </diagram>
</mxfile>
